<?xml version="1.0" encoding="UTF-8"?>
<!-- Created with Inkscape (http://www.inkscape.org/) -->
<svg width="640" height="160" version="1.1" viewBox="0 0 169.33 42.333" xmlns="http://www.w3.org/2000/svg" xmlns:cc="http://creativecommons.org/ns#" xmlns:dc="http://purl.org/dc/elements/1.1/" xmlns:rdf="http://www.w3.org/1999/02/22-rdf-syntax-ns#">
 <metadata>
  <rdf:RDF>
   <cc:Work rdf:about="">
    <dc:format>image/svg+xml</dc:format>
    <dc:type rdf:resource="http://purl.org/dc/dcmitype/StillImage"/>
    <dc:title/>
   </cc:Work>
  </rdf:RDF>
 </metadata>
 <g transform="translate(0 -254.67)">
  <g font-family="sans-serif" letter-spacing="0px" word-spacing="0px">
   <flowRoot fill="black" font-size="40px" style="line-height:1.25" xml:space="preserve"><flowRegion><rect x="60.069" y="22.422" width="14.533" height="61.038"/></flowRegion><flowPara/></flowRoot>
   <flowRoot fill="black" font-size="40px" style="line-height:1.25" xml:space="preserve"><flowRegion><rect x="157.92" y="-180.07" width="146.3" height="93.01"/></flowRegion><flowPara/></flowRoot>
   <text x="37.682522" y="203.17819" fill="#000000" font-size="10.583px" stroke-width=".26458" style="line-height:1.25" xml:space="preserve"><tspan x="37.682522" y="203.17819" stroke-width=".26458">Đ</tspan></text>
  </g>
  <g transform="matrix(.26458 0 0 .26458 10.247 236.25)" aria-label="rĐig">
   <path d="m39.902 98.56v95.947h15.12v-48.72c0-14.747 5.2267-32.853 22.96-32.853 2.6133 0 5.04 0.56 7.4667 1.4933l7.28-15.68c-3.92-0.93333-7.84-2.0533-11.76-2.0533-11.013 0-22.4 7.4667-25.947 17.92v-16.053z" fill="#3b3a36" stroke-width="9.0709"/>
   <path d="m215.16 134.4c0-33.04-21.84-54.133-56.747-54.133h-45.173v46.48h-14v19.413h14v48.347h45.173c32.853 0 56.747-25.573 56.747-60.107zm-28.747 1.4933c0 17.733-9.3333 33.227-28 33.227h-18.48v-22.96h17.173v-19.227l-17.173-0.18666v-21.093h18.48c19.04 0 28 12.88 28 30.24z" fill="#89bdd3"/>
   <path d="m258.87 98.56h-14.933v95.947h14.933zm2.24-19.973c0-5.2267-4.48-9.3333-9.7067-9.3333-5.04 0-9.52 4.1067-9.52 9.3333s4.48 9.3333 9.52 9.3333c5.2267 0 9.7067-4.2933 9.7067-9.3333z" fill="#3b3a36" stroke-width="9.0709"/>
   <path d="m328.28 96.507c-26.693 0-42.747 20.72-42.747 46.293 0 25.013 15.493 47.787 42.373 47.787 8.5867 0 17.733-2.0533 24.453-7.6533 0 15.867-10.267 32.48-27.627 32.48-7.0933 0-20.347-3.7333-25.387-8.5867l-6.72 12.133c7.4667 7.0933 23.147 11.013 33.04 11.013 27.253 0 39.947-23.707 41.253-47.973 0.18666-3.7333 0.18666-7.4667 0.18666-11.2v-72.24h-14.747v7.6533c-6.16-6.5333-15.12-9.7067-24.08-9.7067zm1.68 14.187c9.1467 0 16.8 3.7333 22.587 10.64v43.68c-3.7333 8.0267-14.933 10.827-22.96 10.827-18.293 0-28.373-16.24-28.373-33.227 0-17.36 10.453-31.92 28.747-31.92z" fill="#3b3a36" stroke-width="9.0709"/>
  </g>
  <path d="m134.52 290.05c-1.0984-0.2436-1.5737-0.50344-2.1772-1.1908-0.80128-0.91267-0.89991-1.6823-0.53664-4.1864 0.44806-3.0878 0.53149-2.9598-1.1557-1.7707-3.4016 2.3971-5.2808 2.57-6.9349 0.63777-0.70938-0.82853-1.0416-1.7911-1.0416-3.0158 0-1.7043 0.7384-2.3957 4.0842-3.8243 1.0112-0.43183 1.8386-0.83517 1.8386-0.89635 0-0.0589-0.81914-0.46581-1.8202-0.89949-3.3697-1.459-4.1046-2.1845-4.1009-4.0481 1e-3 -1.021 0.62966-2.5228 1.3182-3.156 0.62007-0.56986 1.6842-0.98049 2.5422-0.98049 0.84896 0 2.1304 0.62963 4.111 2.0207 0.75205 0.52854 1.3955 0.87585 1.4299 0.77264 0.0369-0.10332-0.0664-1.068-0.22809-2.1439-0.37352-2.5162-0.36171-3.1585 0.0768-4.1254 0.29159-0.64294 0.54404-0.87796 1.3378-1.2475 1.8091-0.84226 4.3531-0.52854 5.4544 0.67322 0.86913 0.9482 0.99145 2.1102 0.51082 4.8567-0.15798 0.90175-0.26131 1.7578-0.23105 1.9023 0.0369 0.18225 0.45177-0.0296 1.3517-0.68577 1.7036-1.2474 3.3304-2.0227 4.2449-2.0229 2.8511-5.5e-4 5.011 3.8461 3.3685 5.9993-0.47095 0.61784-2.7953 1.9339-4.6057 2.6078-0.4835 0.18015-0.87916 0.38977-0.87916 0.4658 0 0.076 0.47907 0.32848 1.0643 0.56101 1.6756 0.66509 3.4534 1.5881 4.0864 2.1207 2.2015 1.8524 0.0517 6.3966-3.0151 6.3799-0.96775-6e-3 -2.0321-0.49828-4.0328-1.8685-1.8363-1.2576-1.7724-1.3115-1.3419 1.1323 0.5647 3.2066 0.22662 4.5679-1.345 5.4131-0.97048 0.52187-2.3828 0.73919-3.3748 0.51892z" fill="#89bdd3" stroke-width=".18509"/>
 </g>
</svg>
