<?xml version="1.0" encoding="UTF-8"?>
<svg width="640" height="160" version="1.1" viewBox="0 0 169.33 42.333" xmlns="http://www.w3.org/2000/svg">
 <g transform="translate(0 -254.67)">
  <path d="m9.4848 266.18v18.133h2.8575v-9.2075c0-2.7869 0.98778-6.2089 4.3392-6.2089 0.49389 0 0.9525 0.10584 1.4111 0.28222l1.3758-2.9633c-0.74083-0.17639-1.4817-0.38805-2.2225-0.38805-2.0814 0-4.2333 1.4111-4.9036 3.3867v-3.0339z" fill="#3b3a36"/>
  <path d="m42.607 272.96c0-6.2442-4.1275-10.231-10.724-10.231h-8.5372v8.7842h-2.6458v3.6689h2.6458v9.1369h8.5372c6.2089 0 10.724-4.833 10.724-11.359zm-5.4328 0.28222c0 3.3514-1.7639 6.2794-5.2917 6.2794h-3.4925v-4.3392h3.2456v-3.6336l-3.2456-0.0353v-3.9864h3.4925c3.5983 0 5.2917 2.4342 5.2917 5.715z" fill="#89bdd3"/>
  <path d="m50.867 266.18h-2.8222v18.133h2.8222zm0.42333-3.7747c0-0.98778-0.84667-1.7639-1.8344-1.7639-0.9525 0-1.7992 0.77611-1.7992 1.7639s0.84667 1.7639 1.7992 1.7639c0.98778 0 1.8344-0.81139 1.8344-1.7639z" fill="#3b3a36"/>
  <path d="m63.985 265.8c-5.0447 0-8.0786 3.9158-8.0786 8.7489 0 4.7272 2.9281 9.0311 8.0081 9.0311 1.6228 0 3.3514-0.38806 4.6214-1.4464 0 2.9986-1.9403 6.1383-5.2211 6.1383-1.3406 0-3.8453-0.70555-4.7978-1.6228l-1.27 2.2931c1.4111 1.3406 4.3744 2.0814 6.2442 2.0814 5.1506 0 7.5494-4.4803 7.7964-9.0664 0.03528-0.70556 0.03528-1.4111 0.03528-2.1167v-13.652h-2.7869v1.4464c-1.1642-1.2347-2.8575-1.8344-4.5508-1.8344zm0.3175 2.6811c1.7286 0 3.175 0.70555 4.2686 2.0108v8.255c-0.70555 1.517-2.8222 2.0461-4.3392 2.0461-3.4572 0-5.3622-3.0692-5.3622-6.2794 0-3.2808 1.9756-6.0325 5.4328-6.0325z" fill="#3b3a36"/>
  <path d="m109.25 284.95c-0.78351-0.17376-1.1226-0.35911-1.553-0.84943-0.57157-0.65102-0.64192-1.2-0.3828-2.9862 0.31961-2.2026 0.37912-2.1113-0.82437-1.2631-2.4264 1.7099-3.7669 1.8332-4.9468 0.45493-0.50601-0.591-0.74296-1.2776-0.74296-2.1512 0-1.2157 0.52671-1.7089 2.9134-2.728 0.72132-0.30803 1.3115-0.59574 1.3115-0.63938 0-0.042-0.58431-0.33227-1.2984-0.64162-2.4037-1.0407-2.9279-1.5582-2.9252-2.8876 1e-3 -0.72833 0.44915-1.7996 0.94026-2.2512 0.44231-0.40649 1.2014-0.6994 1.8134-0.6994 0.60558 0 1.5197 0.44913 2.9324 1.4414 0.53645 0.37702 0.99544 0.62476 1.02 0.55114 0.0263-0.0737-0.0474-0.76181-0.1627-1.5293-0.26644-1.7948-0.25801-2.253 0.0548-2.9427 0.20799-0.45862 0.38807-0.62626 0.95427-0.88986 1.2905-0.6008 3.1051-0.37702 3.8907 0.48022 0.61997 0.67636 0.70722 1.5052 0.36438 3.4643-0.11269 0.64323-0.1864 1.2539-0.16481 1.357 0.0263 0.13 0.32225-0.0211 0.96417-0.48917 1.2152-0.88982 2.3756-1.4428 3.0279-1.443 2.0338-4e-4 3.5744 2.7435 2.4028 4.2794-0.33594 0.44072-1.994 1.3795-3.2853 1.8602-0.34489 0.1285-0.62712 0.27803-0.62712 0.33226 0 0.0542 0.34173 0.23431 0.75918 0.40018 1.1952 0.47442 2.4634 1.1328 2.9149 1.5127 1.5704 1.3214 0.0369 4.5628-2.1507 4.5509-0.69031-4e-3 -1.4496-0.35543-2.8767-1.3329-1.3098-0.89704-1.2642-0.93554-0.95722 0.80767 0.40281 2.2873 0.16165 3.2583-0.95938 3.8613-0.69226 0.37226-1.6997 0.52728-2.4073 0.37016z" fill="#89bdd3" stroke-width=".13203"/>
  <text x="121.25048" y="270.13211" fill="#e3e3e3" font-family="sans-serif" font-size="10.583px" letter-spacing="0px" stroke-width=".26458" word-spacing="0px" style="line-height:1.25" xml:space="preserve"><tspan x="121.25048" y="270.13211" stroke-width=".26458"><tspan x="121.25048" y="270.13211" fill="#3b3a3f" fill-opacity=".94118" font-family="Vision" font-size="8.4667px" stroke-width=".26458">dig</tspan></tspan></text>
  <text x="121.63499" y="277.92349" fill="#e3e3e3" font-family="sans-serif" font-size="10.583px" letter-spacing="0px" stroke-width=".26458" word-spacing="0px" style="line-height:1.25" xml:space="preserve"><tspan x="121.63499" y="277.92349" stroke-width=".26458"><tspan x="121.63499" y="277.92349" fill="#3b3a3f" fill-opacity=".94118" font-family="Vision" font-size="8.4667px" stroke-width=".26458">reloaded</tspan></tspan></text>
  <flowRoot fill="black" font-family="sans-serif" font-size="40px" letter-spacing="0px" word-spacing="0px" style="line-height:1.25" xml:space="preserve"><flowRegion><rect x="60.069" y="22.422" width="14.533" height="61.038"/></flowRegion><flowPara/></flowRoot>
 </g>
</svg>
