<?xml version="1.0" encoding="UTF-8" standalone="no"?>
<!-- Created with Inkscape (http://www.inkscape.org/) -->

<svg
   xmlns:dc="http://purl.org/dc/elements/1.1/"
   xmlns:cc="http://creativecommons.org/ns#"
   xmlns:rdf="http://www.w3.org/1999/02/22-rdf-syntax-ns#"
   xmlns:svg="http://www.w3.org/2000/svg"
   xmlns="http://www.w3.org/2000/svg"
   xmlns:sodipodi="http://sodipodi.sourceforge.net/DTD/sodipodi-0.dtd"
   xmlns:inkscape="http://www.inkscape.org/namespaces/inkscape"
   width="640"
   height="160"
   viewBox="0 0 169.33333 42.333335"
   version="1.1"
   id="svg8"
   inkscape:version="0.92.1 r15371"
   sodipodi:docname="rdig_logo_light.svg"
   inkscape:export-filename="C:\Users\Pi\Desktop\rdig.png"
   inkscape:export-xdpi="96"
   inkscape:export-ydpi="96">
  <defs
     id="defs2" />
  <sodipodi:namedview
     id="base"
     pagecolor="#ffffff"
     bordercolor="#666666"
     borderopacity="1.0"
     inkscape:pageopacity="0.0"
     inkscape:pageshadow="2"
     inkscape:zoom="1.0321429"
     inkscape:cx="282.53081"
     inkscape:cy="140.12411"
     inkscape:document-units="mm"
     inkscape:current-layer="layer1"
     showgrid="false"
     units="px"
     inkscape:window-width="1366"
     inkscape:window-height="745"
     inkscape:window-x="-8"
     inkscape:window-y="-8"
     inkscape:window-maximized="1" />
  <metadata
     id="metadata5">
    <rdf:RDF>
      <cc:Work
         rdf:about="">
        <dc:format>image/svg+xml</dc:format>
        <dc:type
           rdf:resource="http://purl.org/dc/dcmitype/StillImage" />
        <dc:title></dc:title>
      </cc:Work>
    </rdf:RDF>
  </metadata>
  <g
     inkscape:label="Layer 1"
     inkscape:groupmode="layer"
     id="layer1"
     transform="translate(0,-254.66665)">
    <flowRoot
       xml:space="preserve"
       id="flowRoot4508"
       style="fill:black;fill-opacity:1;stroke:none;font-family:sans-serif;font-style:normal;font-weight:normal;font-size:40px;line-height:1.25;letter-spacing:0px;word-spacing:0px"><flowRegion
         id="flowRegion4510"><rect
           id="rect4512"
           width="14.532871"
           height="61.038059"
           x="60.069202"
           y="22.422152" /></flowRegion><flowPara
         id="flowPara4514"></flowPara></flowRoot>    <flowRoot
       xml:space="preserve"
       id="flowRoot4516"
       style="fill:black;fill-opacity:1;stroke:none;font-family:sans-serif;font-style:normal;font-weight:normal;font-size:40px;line-height:1.25;letter-spacing:0px;word-spacing:0px"><flowRegion
         id="flowRegion4518"><rect
           id="rect4520"
           width="146.29758"
           height="93.010376"
           x="157.92387"
           y="-180.06918" /></flowRegion><flowPara
         id="flowPara4522"></flowPara></flowRoot>    <text
       xml:space="preserve"
       style="font-style:normal;font-weight:normal;font-size:10.58333302px;line-height:1.25;font-family:sans-serif;letter-spacing:0px;word-spacing:0px;fill:#000000;fill-opacity:1;stroke:none;stroke-width:0.26458332"
       x="37.682522"
       y="203.17819"
       id="text4526"><tspan
         sodipodi:role="line"
         id="tspan4524"
         x="37.682522"
         y="203.17819"
         style="stroke-width:0.26458332">Đ</tspan></text>
    <flowRoot
       xml:space="preserve"
       id="flowRoot4485"
       style="font-style:normal;font-weight:normal;font-size:40px;line-height:1.25;font-family:sans-serif;letter-spacing:0px;word-spacing:0px;fill:#000000;fill-opacity:1;stroke:none;stroke-width:9.07086563;stroke-miterlimit:4;stroke-dasharray:none"
       transform="matrix(0.26458333,0,0,0.26458333,10.246573,236.24802)"><flowRegion
         id="flowRegion4487"
         style="stroke-width:9.07086563;stroke-miterlimit:4;stroke-dasharray:none"><rect
           id="rect4489"
           width="370.72665"
           height="307.9585"
           x="25.714285"
           y="22.857141"
           style="stroke-width:9.07086563;stroke-miterlimit:4;stroke-dasharray:none" /></flowRegion><flowPara
         id="flowPara4491"
         style="font-style:normal;font-variant:normal;font-weight:normal;font-stretch:normal;font-size:186.66667175px;font-family:Vision;-inkscape-font-specification:Vision;fill:#c9c9c9;fill-opacity:1;stroke-width:9.07086563;stroke-miterlimit:4;stroke-dasharray:none"><flowSpan
           style="font-size:186.66667175px;fill:#e9ece5;fill-opacity:1;stroke-width:9.07086563;stroke-miterlimit:4;stroke-dasharray:none"
           id="flowSpan5126">r</flowSpan><flowSpan
           style="font-style:normal;font-variant:normal;font-weight:900;font-stretch:normal;font-size:186.66667175px;font-family:Vision;-inkscape-font-specification:'Vision Heavy';fill:#89bdd3;fill-opacity:1;stroke:none;stroke-width:9.07086563;stroke-linejoin:round;stroke-miterlimit:4;stroke-dasharray:none;stroke-opacity:1"
           id="flowSpan5062">Đ</flowSpan><flowSpan
           style="font-size:186.66667175px;fill:#e9ece5;fill-opacity:1;stroke-width:9.07086563;stroke-miterlimit:4;stroke-dasharray:none"
           id="flowSpan5128">ig</flowSpan></flowPara></flowRoot>    <path
       style="fill:#89bdd3;fill-opacity:1;stroke-width:0.1850902"
       d="m 134.51808,290.05491 c -1.0984,-0.2436 -1.5737,-0.50344 -2.17717,-1.19082 -0.80128,-0.91267 -0.89991,-1.68231 -0.53664,-4.18635 0.44806,-3.08784 0.53149,-2.95985 -1.15569,-1.77071 -3.40159,2.39713 -5.28083,2.56995 -6.93486,0.63777 -0.70938,-0.82853 -1.04156,-1.7911 -1.04156,-3.01581 0,-1.7043 0.7384,-2.39568 4.08425,-3.82434 1.01122,-0.43183 1.83863,-0.83517 1.83863,-0.89635 0,-0.0589 -0.81914,-0.46581 -1.82025,-0.89949 -3.3697,-1.45899 -4.10462,-2.18447 -4.10086,-4.04814 0.001,-1.02104 0.62966,-2.52279 1.31815,-3.156 0.62007,-0.56986 1.68423,-0.98049 2.54221,-0.98049 0.84896,0 2.13044,0.62963 4.11097,2.02073 0.75205,0.52854 1.39551,0.87585 1.42991,0.77264 0.0369,-0.10332 -0.0664,-1.06798 -0.22809,-2.14394 -0.37352,-2.51615 -0.36171,-3.1585 0.0768,-4.12538 0.29159,-0.64294 0.54404,-0.87796 1.3378,-1.2475 1.80911,-0.84226 4.35309,-0.52854 5.45444,0.67322 0.86913,0.9482 0.99145,2.11022 0.51082,4.85667 -0.15798,0.90175 -0.26131,1.75781 -0.23105,1.90234 0.0369,0.18225 0.45177,-0.0296 1.35168,-0.68577 1.70355,-1.24744 3.33041,-2.02273 4.24486,-2.0229 2.85113,-5.5e-4 5.01096,3.84606 3.36852,5.99932 -0.47095,0.61784 -2.79532,1.93386 -4.6057,2.6078 -0.4835,0.18015 -0.87916,0.38977 -0.87916,0.4658 0,0.076 0.47907,0.32848 1.0643,0.56101 1.67558,0.66509 3.4534,1.58812 4.08639,2.12072 2.20153,1.85243 0.0517,6.39657 -3.01507,6.3799 -0.96775,-0.006 -2.03213,-0.49828 -4.0328,-1.86854 -1.83628,-1.25756 -1.77236,-1.31154 -1.34193,1.13228 0.5647,3.20661 0.22662,4.56787 -1.34496,5.41311 -0.97048,0.52187 -2.38276,0.73919 -3.37478,0.51892 z"
       id="path5075"
       inkscape:connector-curvature="0" />
  </g>
</svg>
