<?xml version="1.0" encoding="UTF-8" standalone="no"?>
<!-- Created with Inkscape (http://www.inkscape.org/) -->

<svg
   xmlns:dc="http://purl.org/dc/elements/1.1/"
   xmlns:cc="http://creativecommons.org/ns#"
   xmlns:rdf="http://www.w3.org/1999/02/22-rdf-syntax-ns#"
   xmlns:svg="http://www.w3.org/2000/svg"
   xmlns="http://www.w3.org/2000/svg"
   xmlns:sodipodi="http://sodipodi.sourceforge.net/DTD/sodipodi-0.dtd"
   xmlns:inkscape="http://www.inkscape.org/namespaces/inkscape"
   width="640"
   height="160"
   viewBox="0 0 169.33333 42.333335"
   version="1.1"
   id="svg8"
   inkscape:version="0.92.1 r15371"
   sodipodi:docname="rdig_dark.svg"
   inkscape:export-filename="C:\Users\Pi\Desktop\rdig.png"
   inkscape:export-xdpi="96"
   inkscape:export-ydpi="96">
  <defs
     id="defs2" />
  <sodipodi:namedview
     id="base"
     pagecolor="#ffffff"
     bordercolor="#666666"
     borderopacity="1.0"
     inkscape:pageopacity="0.0"
     inkscape:pageshadow="2"
     inkscape:zoom="1.0321429"
     inkscape:cx="329.03136"
     inkscape:cy="140.12411"
     inkscape:document-units="mm"
     inkscape:current-layer="layer1"
     showgrid="false"
     units="px"
     inkscape:window-width="1366"
     inkscape:window-height="745"
     inkscape:window-x="-8"
     inkscape:window-y="-8"
     inkscape:window-maximized="1" />
  <metadata
     id="metadata5">
    <rdf:RDF>
      <cc:Work
         rdf:about="">
        <dc:format>image/svg+xml</dc:format>
        <dc:type
           rdf:resource="http://purl.org/dc/dcmitype/StillImage" />
        <dc:title></dc:title>
      </cc:Work>
    </rdf:RDF>
  </metadata>
  <g
     inkscape:label="Layer 1"
     inkscape:groupmode="layer"
     id="layer1"
     transform="translate(0,-254.66665)">
    <flowRoot
       xml:space="preserve"
       id="flowRoot4485"
       style="font-style:normal;font-weight:normal;font-size:40px;line-height:1.25;font-family:sans-serif;letter-spacing:0px;word-spacing:0px;fill:#000000;fill-opacity:1;stroke:none"
       transform="matrix(0.26458333,0,0,0.26458333,0,245.83019)"><flowRegion
         id="flowRegion4487"><rect
           id="rect4489"
           width="261.24567"
           height="162.62976"
           x="25.714285"
           y="22.857141" /></flowRegion><flowPara
         id="flowPara4491"
         style="font-style:normal;font-variant:normal;font-weight:normal;font-stretch:normal;font-size:133.33332825px;font-family:Vision;-inkscape-font-specification:Vision;fill:#c9c9c9;fill-opacity:1"><flowSpan
           style="fill:#4a4a4a;fill-opacity:1"
           id="flowSpan5126">r</flowSpan><flowSpan
           style="font-style:normal;font-variant:normal;font-weight:900;font-stretch:normal;font-size:133.33332825px;font-family:Vision;-inkscape-font-specification:'Vision Heavy';fill:#89bdd3;fill-opacity:1"
           id="flowSpan5062">Ä</flowSpan><flowSpan
           style="fill:#4a4a4a;fill-opacity:1"
           id="flowSpan5128">ig</flowSpan></flowPara></flowRoot>    <path
       style="fill:#89bdd3;fill-opacity:1;stroke-width:0.13202785"
       d="m 109.25164,284.95244 c -0.78351,-0.17376 -1.12255,-0.35911 -1.55301,-0.84943 -0.57157,-0.65102 -0.64192,-1.20002 -0.3828,-2.98619 0.31961,-2.20261 0.37912,-2.11131 -0.82437,-1.26308 -2.42641,1.70991 -3.7669,1.83319 -4.94675,0.45493 -0.50601,-0.591 -0.74296,-1.27762 -0.74296,-2.15122 0,-1.21571 0.52671,-1.70888 2.91336,-2.72797 0.72132,-0.30803 1.31153,-0.59574 1.31153,-0.63938 0,-0.042 -0.58431,-0.33227 -1.29842,-0.64162 -2.40366,-1.04072 -2.92789,-1.55822 -2.92521,-2.8876 0.001,-0.72833 0.44915,-1.79955 0.94026,-2.25123 0.44231,-0.40649 1.20139,-0.6994 1.8134,-0.6994 0.60558,0 1.51968,0.44913 2.93242,1.44142 0.53645,0.37702 0.99544,0.62476 1.01998,0.55114 0.0263,-0.0737 -0.0474,-0.76181 -0.1627,-1.52931 -0.26644,-1.79481 -0.25801,-2.25301 0.0548,-2.9427 0.20799,-0.45862 0.38807,-0.62626 0.95427,-0.88986 1.29047,-0.6008 3.10513,-0.37702 3.89074,0.48022 0.61997,0.67636 0.70722,1.50525 0.36438,3.46434 -0.11269,0.64323 -0.1864,1.25387 -0.16481,1.35697 0.0263,0.13 0.32225,-0.0211 0.96417,-0.48917 1.21517,-0.88982 2.37564,-1.44285 3.02793,-1.44297 2.03376,-4e-4 3.5744,2.74346 2.40282,4.27941 -0.33594,0.44072 -1.99395,1.37946 -3.28532,1.86019 -0.34489,0.1285 -0.62712,0.27803 -0.62712,0.33226 0,0.0542 0.34173,0.23431 0.75918,0.40018 1.19522,0.47442 2.46337,1.13283 2.91489,1.51274 1.57039,1.32137 0.0369,4.56278 -2.1507,4.55089 -0.69031,-0.004 -1.44955,-0.35543 -2.87666,-1.33286 -1.30985,-0.89704 -1.26425,-0.93554 -0.95722,0.80767 0.40281,2.28733 0.16165,3.25834 -0.95938,3.86126 -0.69226,0.37226 -1.69966,0.52728 -2.40729,0.37016 z"
       id="path5075"
       inkscape:connector-curvature="0" />
    <flowRoot
       xml:space="preserve"
       id="flowRoot5092"
       style="font-style:normal;font-weight:normal;font-size:40px;line-height:1.25;font-family:sans-serif;letter-spacing:0px;word-spacing:0px;fill:#e3e3e3;fill-opacity:1;stroke:none"
       transform="matrix(0.26458333,0,0,0.26458333,41.655854,254.79483)"><flowRegion
         id="flowRegion5094"
         style="fill:#e3e3e3;fill-opacity:1"><rect
           id="rect5096"
           width="70.242218"
           height="62.00692"
           x="300.83044"
           y="21.937716"
           style="fill:#e3e3e3;fill-opacity:1" /></flowRegion><flowPara
         id="flowPara5098"
         style="font-style:normal;font-variant:normal;font-weight:normal;font-stretch:normal;font-size:32px;font-family:Vision;-inkscape-font-specification:Vision;fill:#4a4a4a;fill-opacity:1">dig</flowPara></flowRoot>    <flowRoot
       transform="matrix(0.26458333,0,0,0.26458333,42.040369,262.58621)"
       xml:space="preserve"
       id="flowRoot5092-0"
       style="font-style:normal;font-weight:normal;font-size:40px;line-height:1.25;font-family:sans-serif;letter-spacing:0px;word-spacing:0px;fill:#e3e3e3;fill-opacity:1;stroke:none"><flowRegion
         id="flowRegion5094-0"
         style="fill:#e3e3e3;fill-opacity:1"><rect
           id="rect5096-0"
           width="128.85814"
           height="61.038059"
           x="300.83044"
           y="21.937716"
           style="fill:#e3e3e3;fill-opacity:1" /></flowRegion><flowPara
         id="flowPara5098-3"
         style="font-style:normal;font-variant:normal;font-weight:normal;font-stretch:normal;font-size:32px;font-family:Vision;-inkscape-font-specification:Vision;fill:#4a4a4a;fill-opacity:1">reloaded</flowPara></flowRoot>  </g>
</svg>
